<svg width="649" height="773" viewBox="0 0 649 773" fill="none" xmlns="http://www.w3.org/2000/svg">
<path d="M170.026 765.35C170.026 768.121 170.026 769.506 169.369 770.506C169.069 770.963 168.678 771.353 168.222 771.653C167.222 772.31 165.836 772.31 163.066 772.31H6.96001C4.18917 772.31 2.80375 772.31 1.80391 771.653C1.34719 771.353 0.95678 770.963 0.656771 770.506C0 769.506 0 768.121 0 765.35V191.276C0 188.505 0 187.12 0.656771 186.12C0.95678 185.663 1.34719 185.273 1.80391 184.973C2.80375 184.316 4.18916 184.316 6.96 184.316H163.066C165.836 184.316 167.222 184.316 168.222 184.973C168.678 185.273 169.069 185.663 169.369 186.12C170.026 187.12 170.026 188.505 170.026 191.276V335.17C170.026 341.825 170.026 345.152 171.544 346.353C172.212 346.882 173.031 347.183 173.883 347.214C175.817 347.283 177.974 344.749 182.286 339.681L437.494 39.767C438.364 38.7445 438.799 38.2332 439.352 37.8979C439.608 37.7421 439.882 37.6156 440.167 37.521C440.78 37.3176 441.452 37.3176 442.795 37.3176H615.398C620.825 37.3176 623.538 37.3176 624.73 38.6471C625.259 39.2371 625.601 39.9711 625.713 40.7558C625.964 42.5239 624.218 44.601 620.727 48.7553L358.06 361.318C356.64 363.008 355.93 363.853 355.723 364.832C355.627 365.283 355.611 365.746 355.673 366.203C355.809 367.194 356.456 368.088 357.75 369.876L641.01 761.269C643.948 765.33 645.417 767.36 645.098 769.052C644.956 769.805 644.6 770.502 644.073 771.059C642.889 772.31 640.383 772.31 635.371 772.31H457.725C456.215 772.31 455.461 772.31 454.786 772.059C454.473 771.943 454.176 771.788 453.902 771.598C453.31 771.188 452.879 770.569 452.015 769.331L270.764 509.356C269.057 506.908 268.204 505.684 267.018 505.25C266.478 505.053 265.901 504.974 265.328 505.02C264.069 505.12 262.919 506.071 260.619 507.972L172.551 580.781C171.497 581.652 170.971 582.087 170.625 582.646C170.464 582.905 170.333 583.182 170.236 583.472C170.026 584.094 170.026 584.778 170.026 586.145V765.35Z" fill="url(#paint0_linear_145_25)"/>
<path d="M170.362 159.005L0 155.887V2.51585e-09C134.005 -0.000167005 170.362 8.31415 170.362 115.357V159.005Z" fill="url(#paint1_linear_145_25)"/>
<defs>
<linearGradient id="paint0_linear_145_25" x1="324.5" y1="37.3176" x2="324.5" y2="772.31" gradientUnits="userSpaceOnUse">
<stop stop-color="#1C0035"/>
<stop offset="1" stop-color="#56008C"/>
</linearGradient>
<linearGradient id="paint1_linear_145_25" x1="85.1813" y1="0" x2="85.1813" y2="159.005" gradientUnits="userSpaceOnUse">
<stop stop-color="#1C0035"/>
<stop offset="1" stop-color="#56008C"/>
</linearGradient>
</defs>
</svg>
